<mxfile host="app.diagrams.net" modified="2024-05-15T16:36:42.258Z" agent="Mozilla/5.0 (X11; Linux x86_64) AppleWebKit/537.36 (KHTML, like Gecko) Chrome/123.0.0.0 Safari/537.36 OPR/109.0.0.0" version="24.4.0" etag="O2wjif-s2dqjBH-KRPC_" type="github">
  <diagram name="Page-1" id="P8GgE0p9WNJN7Z7bkXFj">
    <mxGraphModel>
      <root>
        <mxCell id="0" />
        <mxCell id="1" parent="0" />
      </root>
    </mxGraphModel>
  </diagram>
</mxfile>
